# xmcd CD database file
#
# Track frame offsets:
#	150
#	25812
#	57030
#	77322
#	112897
#	144447
#	164165
#	191205
#	215120
#	238992
#
# Disc length: 3490 seconds
#
# Revision: 0
# Processed by: cddbd v1.5.1PL0 Copyright (c) Steve Scherf et al.
# Submitted via: CDex 1.51
#
DISCID=8b0da00a
DTITLE=John Whitney Trio - Classical Groove
DYEAR=1900
DGENRE=Jazz
TTITLE0=Elvira
TTITLE1=Theme From The Trout
TTITLE2=Funky George
TTITLE3=Pavamba
TTITLE4=Killer Morning
TTITLE5=Fantasy On Schwanda
TTITLE6=Waltz Evening
TTITLE7=Hip-Hop Night
TTITLE8=Pete's Blues
TTITLE9=Two Grooves
EXTD=
EXTT0=
EXTT1=
EXTT2=
EXTT3=
EXTT4=
EXTT5=
EXTT6=
EXTT7=
EXTT8=
EXTT9=
PLAYORDER=
